<?xml version="1.0" encoding="UTF-8"?>
<svg width="800px" height="314px" viewBox="0 0 800 314" version="1.1" xmlns="http://www.w3.org/2000/svg" xmlns:xlink="http://www.w3.org/1999/xlink">
    <!-- Generator: Sketch 52.1 (67048) - http://www.bohemiancoding.com/sketch -->
    <title>logo</title>
    <desc>Created with Sketch.</desc>
    <defs>
        <polygon id="path-1" points="0.00065068622 0.611710895 233.282571 0.611710895 233.282571 174.251966 0.00065068622 174.251966"></polygon>
    </defs>
    <g id="logo" stroke="none" stroke-width="1" fill="none" fill-rule="evenodd">
        <rect id="Rectangle" fill="#FFFFFF" fill-rule="nonzero" x="0" y="-136" width="800" height="600"></rect>
        <g id="Group" transform="translate(93.000000, 15.000000)">
            <path d="M117.139952,33.1650485 C58.9797109,33.1650485 11.8323184,80.3616185 11.8323184,138.582524 C11.8323184,196.80343 58.9797109,244 117.139952,244 C175.300193,244 222.447586,196.80343 222.447586,138.582524 C222.447586,80.3616185 175.300193,33.1650485 117.139952,33.1650485 M117.139952,55.1659785 C163.087099,55.1659785 200.46958,92.5874517 200.46958,138.582524 C200.46958,184.581575 163.087099,221.99907 117.139952,221.99907 C71.1928052,221.99907 33.810324,184.581575 33.810324,138.582524 C33.810324,92.5874517 71.1928052,55.1659785 117.139952,55.1659785" id="Fill-1" fill="#6077F7"></path>
            <g id="Group-5" transform="translate(0.000000, 0.000000)">
                <mask id="mask-2" fill="white">
                    <use xlink:href="#path-1"></use>
                </mask>
                <g id="Clip-4" opacity="0"></g>
                <path d="M224.33095,2.34688518 C221.940501,1.18263405 219.426955,0.610510636 216.957089,0.610510636 C212.160308,0.610510636 207.550156,2.76297493 204.468779,6.90386813 C202.459531,8.90029877 180.544433,29.0566466 116.77662,29.5927622 C52.7507015,29.0566466 30.8236908,8.90029877 28.8144428,6.90386813 C25.7290956,2.76297493 21.1229144,0.610510636 16.3261327,0.610510636 C13.8602374,0.610510636 11.3387503,1.18263405 8.95227194,2.34688518 C1.85239958,5.80363081 -1.48708177,14.2574543 0.629379065,21.9111052 C0.84380474,22.6792709 3.0317408,30.2048942 8.86888417,39.3268619 C8.3685576,41.0952433 8.13824854,42.9556446 8.26134476,44.8640563 C9.54789881,64.7763514 19.8244478,82.4481633 20.9918765,84.4005844 C21.6788328,85.552833 22.5087396,86.5890565 23.4299759,87.5172567 C22.5643315,91.1900489 22.060034,95.0028714 22.060034,98.9437214 C22.060034,126.249611 44.1061701,148.462403 71.2071929,148.462403 C77.2746454,148.462403 83.0641386,147.298152 88.4327222,145.265713 C93.0865535,156.24008 101.091779,168.346692 109.986473,172.635617 L109.926911,172.771646 C111.396124,173.43979 113.008287,173.895889 114.632363,174.111935 C115.263727,174.199954 115.899063,174.251966 116.534398,174.251966 L116.748824,174.251966 C117.384159,174.251966 118.019495,174.199954 118.650859,174.111935 C120.270964,173.895889 121.879157,173.443791 123.34837,172.775647 L123.288807,172.639618 C132.183502,168.350693 140.196668,156.244081 144.8505,145.265713 C150.219083,147.298152 156.008577,148.462403 162.076029,148.462403 C189.173081,148.462403 211.223188,126.249611 211.223188,98.9437214 C211.223188,95.0028714 210.718891,91.1900489 209.849275,87.5132558 C210.770512,86.5890565 211.596447,85.552833 212.287375,84.4005844 C213.454803,82.4481633 223.735323,64.7763514 225.021877,44.8640563 C225.144973,42.9556446 224.910694,41.103245 224.410367,39.3348636 C230.24751,30.2088951 232.439417,22.6792709 232.653843,21.9111052 C234.770304,14.2574543 231.430822,5.80763167 224.33095,2.34688518" id="Fill-3" fill="#FFFFFF" mask="url(#mask-2)"></path>
            </g>
            <path d="M73.3623768,122.488665 C59.3675829,122.488665 48.0243499,111.1336 48.0243499,97.1282184 C48.0243499,83.1188271 59.3675829,71.7637625 73.3623768,71.7637625 C87.3531652,71.7637625 98.6963983,83.1188271 98.6963983,97.1282184 C98.6963983,111.1336 87.3531652,122.488665 73.3623768,122.488665 M73.3623768,63.961165 C55.065806,63.961165 40.2298826,78.8085536 40.2298826,97.1282184 C40.2298826,115.443874 55.065806,130.291262 73.3623768,130.291262 C91.6589476,130.291262 106.490866,115.443874 106.490866,97.1282184 C106.490866,78.8085536 91.6589476,63.961165 73.3623768,63.961165" id="Fill-6" fill="#6077F7"></path>
            <path d="M23.6646368,45.0097087 C23.6646368,45.0097087 36.9494743,59.8342004 54.4286646,61.8522341 C54.4286646,61.8522341 40.1931616,66.1568614 34.374925,75.8058252 C34.374925,75.8058252 24.7621863,60.8201979 23.6646368,45.0097087" id="Fill-8" fill="#6077F7"></path>
            <path d="M137.94997,97.1262136 C137.94997,83.1159755 149.293203,71.7602243 163.283991,71.7602243 C177.278785,71.7602243 188.622018,83.1159755 188.622018,97.1262136 C188.622018,111.132442 177.278785,122.488193 163.283991,122.488193 C149.293203,122.488193 137.94997,111.132442 137.94997,97.1262136 M130.155502,97.1262136 C130.155502,115.442976 144.98742,130.291262 163.283991,130.291262 C181.584567,130.291262 196.416485,115.442976 196.416485,97.1262136 C196.416485,78.8094512 181.584567,63.961165 163.283991,63.961165 C144.98742,63.961165 130.155502,78.8094512 130.155502,97.1262136" id="Fill-10" fill="#6077F7"></path>
            <path d="M117.139952,44.9923117 C39.2673152,44.3467252 16.5652458,16.5825243 16.5652458,16.5825243 C16.5652458,16.5825243 26.9249063,53.7794601 71.5885007,56.8519732 C117.534113,60.0081735 113.986666,109.351698 113.986666,109.351698 C113.986666,109.351698 100.967415,112.511883 100.967415,127.910315 C100.967415,137.805322 115.479699,157.081257 117.139952,156.328073 C118.800205,157.081257 133.312489,137.805322 133.312489,127.910315 C133.312489,112.511883 120.293239,109.351698 120.293239,109.351698 C120.293239,109.351698 116.745791,60.0081735 162.691404,56.8519732 C207.354998,53.7794601 217.714659,16.5825243 217.714659,16.5825243 C217.714659,16.5825243 195.012589,44.3467252 117.139952,44.9923117" id="Fill-12" fill="#6077F7"></path>
            <path d="M70.4553415,89.5986523 C70.4553415,88.0217965 70.9129226,86.5584418 71.6944549,85.3139823 C71.4636397,85.3018215 71.228775,85.2815534 70.9939104,85.2815534 C64.4581945,85.2815534 59.161592,90.5836805 59.161592,97.1262136 C59.161592,103.668747 64.4581945,108.970874 70.9939104,108.970874 C77.5296263,108.970874 82.8262288,103.668747 82.8262288,97.1262136 C82.8262288,96.891104 82.8059818,96.660048 82.7938337,96.428992 C81.5506709,97.2072859 80.0847916,97.6653443 78.5136281,97.6653443 C74.0633482,97.6653443 70.4553415,94.0576278 70.4553415,89.5986523" id="Fill-16" fill="#6077F7"></path>
            <path d="M163.285994,89.5986523 C163.285994,88.0339573 163.739526,86.5827635 164.50891,85.3423576 C164.10802,85.3018215 163.699032,85.2815534 163.285994,85.2815534 C156.750278,85.2815534 151.453676,90.5836805 151.453676,97.1262136 C151.453676,103.668747 156.750278,108.970874 163.285994,108.970874 C169.82171,108.970874 175.118312,103.668747 175.118312,97.1262136 C175.118312,96.9924443 175.102115,96.8667823 175.098065,96.733013 C173.980434,97.3248407 172.700826,97.6653443 171.344281,97.6653443 C166.894001,97.6653443 163.285994,94.0576278 163.285994,89.5986523" id="Fill-18" fill="#6077F7"></path>
            <path d="M75.7268378,159.665598 C75.7268378,163.070278 73.0776299,165.825243 69.8086532,165.825243 C66.5396765,165.825243 63.8945194,163.070278 63.8945194,159.665598 C63.8945194,156.260917 66.5396765,146.873786 69.8086532,146.873786 C73.0776299,146.873786 75.7268378,156.260917 75.7268378,159.665598" id="Fill-21" fill="#6077F7"></path>
            <path d="M106.490866,176.243903 C106.490866,179.648583 103.841658,182.407767 100.576732,182.407767 C97.3037043,182.407767 94.6585472,179.648583 94.6585472,176.243903 C94.6585472,172.839222 97.3037043,163.456311 100.576732,163.456311 C103.841658,163.456311 106.490866,172.839222 106.490866,176.243903" id="Fill-22" fill="#6077F7"></path>
            <path d="M123.056111,204.675306 C123.056111,208.075768 120.406903,210.834951 117.137927,210.834951 C113.86895,210.834951 111.223793,208.075768 111.223793,204.675306 C111.223793,201.266407 113.86895,191.883495 117.137927,191.883495 C120.406903,191.883495 123.056111,201.266407 123.056111,204.675306" id="Fill-23" fill="#6077F7"></path>
            <path d="M127.789039,176.243903 C127.789039,179.648583 130.438247,182.407767 133.707223,182.407767 C136.9762,182.407767 139.621357,179.648583 139.621357,176.243903 C139.621357,172.839222 136.9762,163.456311 133.707223,163.456311 C130.438247,163.456311 127.789039,172.839222 127.789039,176.243903" id="Fill-25" fill="#6077F7"></path>
            <path d="M146.720748,192.826427 C146.720748,196.231108 149.369956,198.990291 152.638933,198.990291 C155.907909,198.990291 158.553067,196.231108 158.553067,192.826427 C158.553067,189.421747 155.907909,180.038835 152.638933,180.038835 C149.369956,180.038835 146.720748,189.421747 146.720748,192.826427" id="Fill-26" fill="#6077F7"></path>
            <path d="M87.5591562,192.826427 C87.5591562,196.231108 84.9099483,198.990291 81.6409716,198.990291 C78.3719949,198.990291 75.7268378,196.231108 75.7268378,192.826427 C75.7268378,189.421747 78.3719949,180.038835 81.6409716,180.038835 C84.9099483,180.038835 87.5591562,189.421747 87.5591562,192.826427" id="Fill-27" fill="#6077F7"></path>
            <path d="M211,45 C211,45 197.615599,59.9226361 180,61.9540301 C180,61.9540301 194.346598,66.2871558 200.206128,76 C200.206128,76 209.893885,60.9151613 211,45" id="Fill-14" fill="#6077F7"></path>
            <path d="M159,159.824577 C159,163.237979 161.686751,166 165.002054,166 C168.317357,166 171,163.237979 171,159.824577 C171,156.411175 168.317357,147 165.002054,147 C161.686751,147 159,156.411175 159,159.824577" id="Fill-24" fill="#6077F7"></path>
            <text id="WL" font-family="Raleway-Regular, Raleway" font-size="200" font-weight="normal" fill="#6077F7">
                <tspan x="236.6" y="238">WL</tspan>
            </text>
        </g>
    </g>
</svg>